<svg width="119" height="163" viewBox="0 0 119 163" fill="none" xmlns="http://www.w3.org/2000/svg">
<path d="M0.700195 162.8V160.2C0.700195 127.5 0.700195 94.8 0.700195 62.1C0.700195 45.2 12.0002 31.2999 28.5002 28.7999C35.7002 27.6999 43.3002 28.6 51.2002 28.6V31.3999C51.2002 63.4999 51.2002 95.6999 51.2002 127.8C51.2002 148.3 36.7002 162.8 16.1002 162.8C11.2002 162.8 6.2002 162.8 0.700195 162.8ZM68.0002 106.6V0.199952C77.4002 0.699952 86.7002 -1.00004 95.7002 2.29996C109 6.99996 118.1 20 118.3 34.7C118.5 46.6 118.4 58.3999 118.4 70.2999C118.3 90.4999 105.4 105.2 86.2002 106.6C80.3002 106.9 74.3002 106.6 68.0002 106.6Z" fill="black"/>
</svg>
